<svg xmlns="http://www.w3.org/2000/svg" viewBox="0 0 450 450"><defs><style>.cls-1{isolation:isolate;}.cls-2{fill:#faf7ee;}.cls-3{fill:#e0e0b3;}.cls-4{fill:#ccc9c2;mix-blend-mode:multiply;}.cls-5{fill:#c4a941;}.cls-6{fill:#91b370;}.cls-7{fill:#231f20;}</style></defs><g class="cls-1"><g id="Layer_1" data-name="Layer 1"><path class="cls-2" d="M123.84,16.31a1,1,0,0,0,0,2A1,1,0,0,0,123.84,16.31Z"/><path d="M261.2,325.62a1,1,0,0,1-.69.61,280.72,280.72,0,0,1-68.86,8.64c-32,0-52.37-5.64-52.7-5.73a1,1,0,0,1-.72-1c2.94-42.69,21.78-85.49,50.47-114.66l.56-.57a1,1,0,0,1,1.41,0h0a.87.87,0,0,1,.24.44,1,1,0,0,1-.25,1q-.51.51-1,1-1.58,1.6-3.08,3.26c-.62.66-1.22,1.32-1.8,2-25.18,28.36-41.63,67.61-44.52,106.86,6.71,1.71,55.71,13,119.23-3,1.95-5.71.3-15.06-3.35-26-9.86-29.59-34.32-70.78-41.55-82.65-.9-1.47-1.53-2.48-1.84-3l-.21-.34a1,1,0,0,1-.12-.75h0s0-.06,0-.08a1,1,0,0,1,.41-.54,1,1,0,0,1,.93-.07l.18.11a.78.78,0,0,1,.27.27l.13.21c3,4.74,36.88,59.42,45.78,93.37C262.43,313.56,263.08,320.83,261.2,325.62Z"/><path class="cls-3" d="M259.51,324.42c-63.52,16-112.52,4.71-119.23,3,3.11-42.23,21.92-84.47,50.39-113.13a1,1,0,0,0,0-1.41h0a45.68,45.68,0,0,1-6.38-23.64c6.51,2,13.72.49,18-3.87a18.52,18.52,0,0,0,19,3.38c-.75,2-1.36,4-2,6-1.55,5.12-3.15,10.41-7.18,15.45a1,1,0,0,0,.16,1.4l.11.08a1,1,0,0,0,.12.76C213.12,213.32,267.64,300.62,259.51,324.42Z"/><path d="M224.15,187.06a70.29,70.29,0,0,0-2.89,8.27c-1.42,4.7-2.89,9.55-6.19,14.3q-.51.74-1.08,1.47l-.26.34a1,1,0,0,1-.78.38h0a.91.91,0,0,1-.48-.13h0a.18.18,0,0,1-.07-.05l0,0a1,1,0,0,1-.16-1.4l.65-.84c3.56-4.78,5.07-9.77,6.53-14.61.6-2,1.21-4,2-6a18.52,18.52,0,0,1-19-3.38c-4.1,4.18-10.9,5.77-17.19,4.1l-.8-.23a45.68,45.68,0,0,0,6.38,23.64h0l.11.19a.91.91,0,0,1,.11.25,1,1,0,0,1-.45,1.13,1,1,0,0,1-.51.14,1,1,0,0,1-.86-.48l-.12-.21c-.09-.15-.18-.3-.26-.45a47.57,47.57,0,0,1-6.37-25.66,1,1,0,0,1,.45-.8,1,1,0,0,1,.92-.09l.51.19c6.31,2.28,13.49.71,17.26-3.82a1,1,0,0,1,.73-.36.92.92,0,0,1,.76.31,16.27,16.27,0,0,0,19.75,2.58,1,1,0,0,1,1.44,1.26Z"/><path d="M189.89,215.33a1,1,0,0,1-1-1,1,1,0,0,1,1-1h0a67.89,67.89,0,0,0,22.83-3.94,1,1,0,0,1,.67,1.89A70,70,0,0,1,189.89,215.33Z"/><path d="M186.08,220.58c-.45,0-.9,0-1.35,0a1,1,0,0,1-1-1,1,1,0,0,1,1-1c10.68.31,22-3.24,28.92-9a1,1,0,0,1,1.41.13,1,1,0,0,1-.13,1.4C207.93,217,197,220.58,186.08,220.58Z"/><path d="M219.06,264.56l-.16,0a1,1,0,0,1-.83-1.15c2.26-13.59.86-27.76-4.42-44.16A118.51,118.51,0,0,1,210,248.79a1,1,0,1,1-1.93-.49,117,117,0,0,0,3.41-35.55,1,1,0,0,1,1.93-.4c7.14,19.42,9.25,35.75,6.66,51.37A1,1,0,0,1,219.06,264.56Z"/><path class="cls-4" d="M261.2,325.62a1,1,0,0,1-.69.61,280.72,280.72,0,0,1-68.86,8.64c-32,0-52.37-5.64-52.7-5.73a1,1,0,0,1-.72-1c2.94-42.69,21.78-85.49,50.47-114.66a47.57,47.57,0,0,1-6.37-25.66,1,1,0,0,1,.45-.8,1,1,0,0,1,.92-.09l.51.19c.31.8.6,1.59.88,2.37,3.18,8.76,5.29,16.35,13.74,23.28.35.3.72.59,1.1.88a17.18,17.18,0,0,0-3,1.35,18.46,18.46,0,0,0-4,3.11,19.76,19.76,0,0,0-1.92,2.26,26.65,26.65,0,0,0-3.8,22.68c3.36,11.31,12.85,19.79,23,25.8s21.34,10.17,31.29,16.51a56.51,56.51,0,0,1,14.68,13.08,37.38,37.38,0,0,1,4,6.54C262.43,313.56,263.08,320.83,261.2,325.62Z"/><path d="M253.32,265.36a15.45,15.45,0,0,0-15.43,15.43v4.41a1,1,0,0,0,2,0v-4.41a13.43,13.43,0,0,1,26.86,0v4.41a1,1,0,1,0,2,0v-4.41A15.45,15.45,0,0,0,253.32,265.36Zm0-6a21.46,21.46,0,0,0-21.43,21.43v4.41a1,1,0,0,0,2,0v-4.41a19.43,19.43,0,0,1,38.86,0v4.41a1,1,0,1,0,2,0v-4.41A21.46,21.46,0,0,0,253.32,259.36Zm0,6a15.45,15.45,0,0,0-15.43,15.43v4.41a1,1,0,0,0,2,0v-4.41a13.43,13.43,0,0,1,26.86,0v4.41a1,1,0,1,0,2,0v-4.41A15.45,15.45,0,0,0,253.32,265.36Z"/><path class="cls-5" d="M272.75,280.79v3.41h-4v-3.41a15.43,15.43,0,0,0-30.86,0v3.41h-4v-3.41a19.43,19.43,0,0,1,38.86,0Z"/><path d="M272.75,285.2v-1H239.89v1a1,1,0,0,1-1,1h34.86A1,1,0,0,1,272.75,285.2Zm-6,0v-1H239.89v1a1,1,0,0,1-1,1h28.86A1,1,0,0,1,266.75,285.2Zm13.06-1H226.44a1,1,0,0,0-1,1v16a27.69,27.69,0,1,0,55.37,0v-16A1,1,0,0,0,279.81,284.2Zm-1,17a25.69,25.69,0,1,1-51.37,0v-15h51.37Z"/><path class="cls-6" d="M227.45,286.2v15a25.69,25.69,0,0,0,51.37,0v-15ZM259.71,313a1,1,0,0,1-.78.39h-8.32a1,1,0,0,1-.79-.39,1,1,0,0,1-.18-.86l.56-2.23,1.44-5.71a4.34,4.34,0,1,1,7.32-3.14,4.26,4.26,0,0,1-1.08,2.84l2,8.25h0A1,1,0,0,1,259.71,313Z"/><path d="M253.72,304.08a1,1,0,0,0,0-.48.49.49,0,0,0-.06-.17.82.82,0,0,0-.12-.2l-.11-.12-.13-.1a2.38,2.38,0,0,1-1-1.94,2.34,2.34,0,1,1,3.85,1.78,1,1,0,0,0-.17.19.65.65,0,0,0-.09.16,1.59,1.59,0,0,0-.07.2,1.49,1.49,0,0,0,0,.21,1,1,0,0,0,0,.24l0,.1,1.81,7.45h-5.76l1.82-7.25Z"/><path d="M259,301.07a4.26,4.26,0,0,1-1.08,2.84,3.25,3.25,0,0,1-.45.46,1,1,0,0,1-1.41-.11,1,1,0,0,1-.18-.31l0-.1a1,1,0,0,1,0-.24,1.49,1.49,0,0,1,0-.21,1.59,1.59,0,0,1,.07-.2A.65.65,0,0,1,256,303a1,1,0,0,1,.17-.19,2.33,2.33,0,1,0-2.82.16l.13.1.11.12a.82.82,0,0,1,.12.2.49.49,0,0,1,.06.17,1,1,0,0,1,0,.48l0,.07a.64.64,0,0,1-.12.25,1,1,0,0,1-.83.44,1,1,0,0,1-.56-.17,4.15,4.15,0,0,1-.56-.46,4.34,4.34,0,1,1,7.32-3.14Z"/><path d="M259.7,313a1,1,0,0,1-.78.39H250.6a1,1,0,0,1-.79-.39,1,1,0,0,1-.18-.86l2-7.94.15-.61a1,1,0,0,1,1.21-.73,1.09,1.09,0,0,1,.31.14l.13.1.11.12a.82.82,0,0,1,.12.2.49.49,0,0,1,.06.17,1,1,0,0,1,0,.48l0,.07-1.82,7.25h5.76L255.83,304l0-.1a1,1,0,0,1,0-.24,1.49,1.49,0,0,1,0-.21,1.59,1.59,0,0,1,.07-.2A.65.65,0,0,1,256,303a1,1,0,0,1,.17-.19.94.94,0,0,1,.41-.21,1,1,0,0,1,1.21.73l.13.54,2,8.25A1,1,0,0,1,259.7,313Z"/><path class="cls-2" d="M171.74,241.57l-12,26.92c-.52,1.16,1.2,2.18,1.73,1q6-13.46,12-26.92C174,241.42,172.26,240.4,171.74,241.57Z"/><path class="cls-2" d="M234.41,311.39a25.58,25.58,0,0,1-2.2-13.77,1,1,0,0,0-1-1,1,1,0,0,0-1,1,27.46,27.46,0,0,0,2.47,14.78C233.23,313.57,235,312.55,234.41,311.39Z"/><path class="cls-2" d="M276.58,304.27a2.14,2.14,0,0,1-1.51-1.27,1,1,0,0,0-1.37-.35,4,4,0,0,1-1.31.61c.15-.3.3-.59.42-.89a2.32,2.32,0,0,0-.43-2.66,2.72,2.72,0,0,0-2.76-.47,5.19,5.19,0,0,0-2.34,2.36c-.67,1.1,1.06,2.11,1.73,1a4.75,4.75,0,0,1,1-1.29,1.12,1.12,0,0,1,.36-.22l.16,0h.24l.17,0,.09.05,0,0v.13a1.68,1.68,0,0,1-.09.32l0,.05,0,.08-.15.32c-.46.91-1,2.14-.1,3,.52.52,1.58.27,2.21.12a5.55,5.55,0,0,0,1-.38,4.08,4.08,0,0,0,2.16,1.35C277.3,306.5,277.83,304.58,276.58,304.27Z"/><path class="cls-2" d="M206.35,284.14l-3.73,1.21a25.88,25.88,0,0,1-3.16,1c-1.21.23-1.14-1.1-1.12-2a13.44,13.44,0,0,1,.51-3.39c.43-1.58,1.16-3.31.75-5a3.2,3.2,0,0,0-3.15-2.47c-1.73,0-3.09,1.07-4.35,2.13-.48.4-1.8,1.69-2.55,1.49s-.16-.89.09-1.28.58-.83.86-1.26A35.73,35.73,0,0,0,195.35,263c.15-.66-.48-1.55-1.23-1.23q-7.08,3-13.87,6.55c-1.14.6-.13,2.33,1,1.72q5.72-3,11.65-5.59a33.47,33.47,0,0,1-3.79,8.62c-.76,1.23-2.1,2.57-2.05,4.13s1.51,2.1,2.84,1.92a7.73,7.73,0,0,0,3.75-2.15c.94-.8,3.72-2.6,4-.24.21,1.6-.73,3.32-1,4.87a10,10,0,0,0-.07,4.9,2.66,2.66,0,0,0,3.41,1.78c2.32-.59,4.61-1.5,6.89-2.24C208.1,285.67,207.57,283.74,206.35,284.14Z"/><path class="cls-7" d="M204.79,324.53c-17.45,2.78-36.32,4.38-52.87-3.1-1.17-.52-2.19,1.2-1,1.73,17.11,7.73,36.36,6.18,54.41,3.3C206.58,326.26,206.05,324.33,204.79,324.53Z"/><path class="cls-7" d="M180.57,320.73a10.68,10.68,0,0,1-9.46.54,1,1,0,0,0-1.23.7,1,1,0,0,0,.7,1.23,12.56,12.56,0,0,0,11-.75A1,1,0,0,0,180.57,320.73Z"/><path class="cls-7" d="M255.6,318.46a14.75,14.75,0,0,1-11.18.7c-1.22-.42-1.75,1.51-.53,1.92a16.77,16.77,0,0,0,12.72-.89C257.76,319.62,256.75,317.89,255.6,318.46Z"/><path class="cls-7" d="M254.62,289.9l-14.73-.41c-1.29,0-1.29,2,0,2l14.73.41C255.91,291.94,255.91,289.94,254.62,289.9Z"/><path class="cls-2" d="M244.85,263.36a1,1,0,0,0-1.37-.36,27.69,27.69,0,0,0-5.41,4.6,1,1,0,0,0,0,1.41,1,1,0,0,0,1.41,0,28.52,28.52,0,0,1,2.43-2.36l.64-.53.31-.24,0,0,.18-.14c.46-.34.93-.67,1.41-1A1,1,0,0,0,244.85,263.36Z"/><path class="cls-7" d="M187.9,343l-11.33-.32c-1.29,0-1.29,2,0,2l11.33.32A1,1,0,0,0,187.9,343Z"/><path class="cls-7" d="M169.25,225.39a1,1,0,0,0-1.42,0,16,16,0,0,0-5,7.1,1,1,0,0,0,.69,1.24,1,1,0,0,0,1.23-.7l.19-.51.07-.16.06-.14c.13-.3.27-.59.42-.88a15.63,15.63,0,0,1,1.07-1.74c.21-.29.28-.39.5-.65s.44-.52.67-.77a15.26,15.26,0,0,1,1.51-1.38A1,1,0,0,0,169.25,225.39Z"/><path class="cls-7" d="M240.06,232.14l-2.17-4.58a1,1,0,1,0-1.73,1l2.17,4.58a1,1,0,0,0,1.37.36A1,1,0,0,0,240.06,232.14Z"/><path class="cls-7" d="M244.05,233.08l-2.68-6.87a1,1,0,0,0-1.23-.7,1,1,0,0,0-.7,1.23l2.69,6.87a1,1,0,0,0,1.23.7A1,1,0,0,0,244.05,233.08Z"/><path class="cls-7" d="M281.66,267.32q-2.43-4.89-4.85-9.77a1,1,0,0,0-1.73,1q2.43,4.89,4.85,9.77a1,1,0,0,0,1.37.36A1,1,0,0,0,281.66,267.32Z"/><path class="cls-4" d="M275.27,314.23a25.68,25.68,0,0,1-47.82-13V286.6a1.9,1.9,0,0,1,.53-.4,1.21,1.21,0,0,1,1.05,0c.9.38,1.95,1.68,3.23,3.91,3.27,5.71,4.93,11,10.31,15.33a30.17,30.17,0,0,0,7.63,4.48,30.82,30.82,0,0,0,9.7,2.25,29.24,29.24,0,0,0,4.39,0c3.86-.31,8.52-1,10.92,2A.47.47,0,0,1,275.27,314.23Z"/></g></g></svg>